<svg xmlns="http://www.w3.org/2000/svg" width="512" height="512" viewBox="0 0 512 512" role="img"
    aria-label="Slurp">
    <rect width="512" height="512" rx="128" fill="#0a0a0a" />
    <g fill="#facc15">
        <path
            d="M170 148c0-17.7 14.3-32 32-32h108c17.7 0 32 14.3 32 32v36c0 22-10.1 42.7-27.4 56l-10.6 8.1V372c0 28.7-23.3 52-52 52h-48c-28.7 0-52-23.3-52-52V248.1l-10.6-8.1C180.1 226.7 170 206 170 184v-36zm64 0v25.9c0 10.1 4.7 19.6 12.6 25.7l25.4 19.4v152c0 7.7-6.3 14-14 14h-48c-7.7 0-14-6.3-14-14V219l25.4-19.4c7.9-6.1 12.6-15.6 12.6-25.7V148h76v25.9c0 10.1-4.7 19.6-12.6 25.7L272 219v152c0 7.7-6.3 14-14 14h-48c-7.7 0-14-6.3-14-14V219l25.4-19.4c7.9-6.1 12.6-15.6 12.6-25.7V148z" />
        <circle cx="340" cy="160" r="10" />
        <circle cx="362" cy="178" r="7" />
    </g>
</svg>